Jump_normalized_pl02_filtered_grf
version=1
nRows=25
nColumns=37
inDegrees=yes
endheader
time		1_ground_force_vx		1_ground_force_vy		1_ground_force_vz		1_ground_force_px		1_ground_force_py		1_ground_force_pz		1_ground_torque_x		1_ground_torque_y		1_ground_torque_z		2_ground_force_vx		2_ground_force_vy		2_ground_force_vz		2_ground_force_px		2_ground_force_py		2_ground_force_pz		2_ground_torque_x		2_ground_torque_y		2_ground_torque_z		3_ground_force_vx		3_ground_force_vy		3_ground_force_vz		3_ground_force_px		3_ground_force_py		3_ground_force_pz		3_ground_torque_x		3_ground_torque_y		3_ground_torque_z		4_ground_force_vx		4_ground_force_vy		4_ground_force_vz		4_ground_force_px		4_ground_force_py		4_ground_force_pz		4_ground_torque_x		4_ground_torque_y		4_ground_torque_z		
0.490333		0.000000		-0.000000		-0.000000		0.145658		0.000000		0.221846		-0.000000		-0.000000		0.000000		-0.000000		-0.000000		-0.000000		-0.297438		0.000000		0.094812		-0.000000		0.000000		-0.000000		-17.382791		244.338426		-135.264646		0.412713		1.262482		1.877001		0.696651		-9.792303		5.420967		40.607116		306.162465		-124.498511		-0.354030		1.256597		1.904310		2.257133		17.017934		-6.920181		
0.492808		0.000000		-0.000000		-0.000000		0.145658		0.000000		0.221846		-0.000000		-0.000000		0.000000		-0.000000		-0.000000		-0.000000		-0.297438		0.000000		0.094812		-0.000000		0.000000		-0.000000		-12.451070		222.401305		-128.087007		0.412701		1.262529		1.876884		0.497151		-8.880035		5.114248		37.806977		284.930577		-121.195683		-0.353995		1.256621		1.904232		2.082563		15.695147		-6.675930		
0.495283		0.000000		-0.000000		-0.000000		0.145658		0.000000		0.221846		-0.000000		-0.000000		0.000000		-0.000000		-0.000000		-0.000000		-0.297438		0.000000		0.094812		-0.000000		0.000000		-0.000000		-7.747390		200.305792		-119.769492		0.412683		1.262573		1.876761		0.308135		-7.966550		4.763458		35.100574		263.211881		-116.845352		-0.353965		1.256643		1.904137		1.914442		14.356014		-6.372912		
0.497758		0.000000		-0.000000		-0.000000		0.145658		0.000000		0.221846		-0.000000		-0.000000		0.000000		-0.000000		-0.000000		-0.000000		-0.297438		0.000000		0.094812		-0.000000		0.000000		-0.000000		-3.362080		178.322401		-110.466281		0.412655		1.262612		1.876635		0.133169		-7.062863		4.375261		32.429773		241.168456		-111.432892		-0.353937		1.256664		1.904024		1.750010		13.014203		-6.013241		
0.500232		0.000000		-0.000000		-0.000000		0.145658		0.000000		0.221846		-0.000000		-0.000000		0.000000		-0.000000		-0.000000		-0.000000		-0.297438		0.000000		0.094812		-0.000000		0.000000		-0.000000		0.616666		156.728119		-100.371914		0.412614		1.262644		1.876508		-0.024308		-6.179784		3.957655		29.745913		218.981106		-104.990600		-0.353915		1.256684		1.903896		1.587041		11.683364		-5.601571		
0.502707		0.000000		-0.000000		-0.000000		0.145658		0.000000		0.221846		-0.000000		-0.000000		0.000000		-0.000000		-0.000000		-0.000000		-0.297438		0.000000		0.094812		-0.000000		0.000000		-0.000000		4.108525		135.797519		-89.714161		0.412560		1.262667		1.876384		0.704930		-17.350865		-14.639729		27.014500		196.845125		-97.599131		-0.353896		1.256703		1.903752		1.424069		10.376698		-5.144922		
0.505182		0.000000		-0.000000		-0.000000		0.145658		0.000000		0.221846		-0.000000		-0.000000		0.000000		-0.000000		-0.000000		-0.000000		-0.297438		0.000000		0.094812		-0.000000		0.000000		-0.000000		7.046282		115.794022		-78.744644		0.412490		1.262680		1.876265		0.618928		-15.143409		-12.476315		24.218365		174.966407		-89.386151		-0.353880		1.256721		1.903595		1.260517		9.106661		-4.652359		
0.507657		0.000000		-0.000000		-0.000000		0.145658		0.000000		0.221846		-0.000000		-0.000000		0.000000		-0.000000		-0.000000		-0.000000		-0.297438		0.000000		0.094812		-0.000000		0.000000		-0.000000		9.380248		96.961542		-67.727652		0.412407		1.262680		1.876150		0.539572		-12.969311		-10.446105		21.359160		153.557834		-80.522259		-0.353868		1.256739		1.903425		1.096735		7.884786		-4.134592		
0.510131		0.000000		-0.000000		0.000000		0.145658		0.000000		0.221846		-0.000000		-0.000000		0.000000		-0.000000		-0.000000		0.000000		-0.297438		0.000000		0.094812		0.000000		0.000000		-0.000000		11.081473		79.516609		-56.927859		0.412310		1.262670		1.876040		-0.424832		-3.048533		2.182514		18.457136		132.835705		-71.214245		-0.353860		1.256757		1.903247		0.933946		6.721590		-3.603488		
0.512606		0.000000		0.000000		0.000000		0.145658		0.000000		0.221846		0.000000		0.000000		-0.000000		-0.000000		0.000000		0.000000		-0.297438		0.000000		0.094812		0.000000		0.000000		0.000000		12.143057		63.641135		-46.597931		0.412206		1.262649		1.875936		-0.459192		-2.406683		1.762165		15.549270		113.015874		-61.695886		-0.353856		1.256774		1.903062		0.774130		5.626551		-3.071554		
0.515081		-0.000000		0.000000		0.000000		0.145658		0.000000		0.221846		0.000000		0.000000		-0.000000		0.000000		0.000000		0.000000		-0.297438		0.000000		0.094812		0.000000		-0.000000		0.000000		12.579053		49.475885		-36.967464		0.412099		1.262619		1.875834		-0.466110		-1.833371		1.369857		12.685886		94.309198		-52.216580		-0.353854		1.256789		1.902873		0.619853		4.608079		-2.551372		
0.517556		-0.000000		0.000000		0.000000		0.145658		0.000000		0.221846		0.000000		0.000000		-0.000000		0.000000		0.000000		0.000000		-0.297438		0.000000		0.094812		0.000000		-0.000000		0.000000		12.423882		37.114855		-28.234038		0.411993		1.262583		1.875731		-0.445936		-1.332240		1.013460		9.926009		76.915853		-43.028269		-0.353857		1.256803		1.902681		0.474063		3.673456		-2.055003		
0.520030		-0.000000		0.000000		0.000000		0.145658		0.000000		0.221846		0.000000		0.000000		-0.000000		0.000000		0.000000		0.000000		-0.297438		0.000000		0.094812		0.000000		-0.000000		0.000000		11.737350		26.600806		-20.554403		0.411894		1.262544		1.875624		-0.399506		-0.905458		0.699644		7.331823		61.018272		-34.371308		-0.353863		1.256815		1.902489		0.339890		2.828673		-1.593377		
0.522505		-0.000000		0.000000		0.000000		0.145658		0.000000		0.221846		0.000000		0.000000		-0.000000		0.000000		0.000000		0.000000		-0.297438		0.000000		0.094812		0.000000		-0.000000		0.000000		10.610425		17.922513		-14.034455		0.411809		1.262503		1.875511		-0.327977		-0.554010		0.433824		4.962787		46.772623		-26.460068		-0.353873		1.256824		1.902298		0.220503		2.078169		-1.175655		
0.524980		-0.000000		0.000000		0.000000		0.145658		0.000000		0.221846		0.000000		0.000000		-0.000000		0.000000		0.000000		0.000000		-0.297438		0.000000		0.094812		0.000000		-0.000000		0.000000		9.161494		11.017083		-8.723398		0.411742		1.262463		1.875387		-0.232076		-0.279129		0.221015		2.870528		34.302213		-19.471031		-0.353885		1.256829		1.902109		0.899281		4.069673		3.966224		
0.527455		-0.000000		0.000000		0.000000		0.145658		0.000000		0.221846		0.000000		0.000000		-0.000000		0.000000		0.000000		0.000000		-0.297438		0.000000		0.094812		0.000000		-0.000000		0.000000		7.525855		5.764497		-4.605663		0.411694		1.262428		1.875252		-0.112701		-0.086472		0.069087		1.092707		23.679180		-13.526839		-0.353900		1.256829		1.901923		0.667321		2.741379		2.834694		
0.529929		-0.000000		0.000000		0.000000		0.145658		0.000000		0.221846		0.000000		0.000000		-0.000000		0.000000		0.000000		0.000000		-0.297438		0.000000		0.094812		0.000000		-0.000000		0.000000		5.839426		2.000765		-1.609229		0.411667		1.262397		1.875101		0.012414		0.004010		-0.003226		-0.349346		14.922083		-8.691437		-0.353916		1.256824		1.901741		0.469732		1.656953		1.894569		
0.532404		-0.000000		0.000000		0.000000		0.145658		0.000000		0.221846		0.000000		0.000000		-0.000000		0.000000		0.000000		0.000000		-0.297438		0.000000		0.094812		0.000000		-0.000000		0.000000		4.225789		-0.473464		0.385908		0.411659		1.262371		1.874936		0.049400		0.039906		0.056450		-1.452157		7.989576		-4.967360		-0.353932		1.256812		1.901563		0.307426		0.812727		1.141576		
0.534879		-0.000000		0.000000		-0.000000		0.145658		0.000000		0.221846		0.000000		0.000000		-0.000000		0.000000		0.000000		-0.000000		-0.297438		0.000000		0.094812		-0.000000		-0.000000		0.000000		2.785874		-1.881314		1.535422		0.411668		1.262350		1.874756		0.028695		0.282515		0.221637		-2.229884		2.778352		-2.298320		-0.353947		1.256794		1.901388		0.179945		0.194735		0.565915		
0.537354		-0.000000		-0.000000		-0.000000		0.145658		0.000000		0.221846		-0.000000		-0.000000		0.000000		0.000000		-0.000000		-0.000000		-0.297438		0.000000		0.094812		-0.000000		-0.000000		-0.000000		1.591400		-2.455638		2.015579		0.411689		1.262334		1.874561		0.014529		0.398190		0.297771		-2.712219		-0.872411		-0.577674		-0.353959		1.256769		1.901218		0.085438		-0.219959		0.152366		
0.539828		0.000000		-0.000000		-0.000000		0.145658		0.000000		0.221846		-0.000000		-0.000000		0.000000		-0.000000		-0.000000		-0.000000		-0.297438		0.000000		0.094812		-0.000000		0.000000		-0.000000		0.682485		-2.424696		2.007765		0.411718		1.262321		1.874354		0.006147		0.418026		0.308483		-2.940942		-3.170704		0.338892		-0.353968		1.256738		1.901051		0.020784		-0.461125		-0.118969		
0.542303		0.000000		-0.000000		-0.000000		0.145658		0.000000		0.221846		-0.000000		-0.000000		0.000000		-0.000000		-0.000000		-0.000000		-0.297438		0.000000		0.094812		-0.000000		0.000000		-0.000000		0.068935		-1.999132		1.684396		0.411750		1.262310		1.874137		0.002505		0.372070		0.275578		-2.965619		-4.356584		0.618372		-0.353973		1.256701		1.900888		-0.018138		-0.562712		-0.271409		
0.544778		0.000000		-0.000000		-0.000000		0.145658		0.000000		0.221846		-0.000000		-0.000000		0.000000		-0.000000		-0.000000		-0.000000		-0.297438		0.000000		0.094812		-0.000000		0.000000		-0.000000		-0.265724		-1.361602		1.197480		0.411782		1.262300		1.873913		0.002453		0.287472		0.217998		-2.838961		-4.684412		0.435130		-0.353972		1.256661		1.900728		-0.036095		-0.560036		-0.330067		
0.547253		0.000000		-0.000000		-0.000000		0.145658		0.000000		0.221846		-0.000000		-0.000000		0.000000		-0.000000		-0.000000		-0.000000		-0.297438		0.000000		0.094812		-0.000000		0.000000		-0.000000		-0.358473		-0.659967		0.670671		0.411809		1.262289		1.873686		0.004869		0.187118		0.151145		-2.612371		-4.404899		-0.043080		-0.353967		1.256618		1.900573		-0.038108		-0.487149		-0.320122		
0.549727		0.000000		-0.000000		-0.000000		0.145658		0.000000		0.221846		-0.000000		-0.000000		0.000000		-0.000000		-0.000000		-0.000000		-0.297438		0.000000		0.094812		-0.000000		0.000000		-0.000000		-0.260216		-0.004328		0.195086		0.411830		1.262279		1.873457		0.008750		0.088815		0.086570		-2.332115		-3.749099		-0.666551		-0.353960		1.256576		1.900422		-0.029080		-0.374641		-0.265202		
